 <svg version="1.0" xmlns="http://www.w3.org/2000/svg"  width="300.000000pt" height="300.000000pt" viewBox="0 0 300.000000 300.000000"  preserveAspectRatio="xMidYMid meet">  <g transform="translate(0.000000,300.000000) scale(0.100000,-0.100000)" fill="#000000" stroke="none"> <path d="M2019 2284 c-15 -18 -59 -150 -59 -177 0 -12 6 -17 18 -15 29 5 91 208 63 208 -5 0 -15 -7 -22 -16z"/> <path d="M2160 2155 c-95 -71 -124 -101 -117 -119 7 -17 8 -17 35 -1 41 27 162 136 162 146 0 19 -37 7 -80 -26z"/> <path d="M916 2151 c-3 -4 13 -16 35 -26 22 -10 55 -36 74 -57 l35 -38 0 -543 c0 -632 6 -594 -92 -583 -32 4 -79 4 -103 0 -44 -6 -45 -7 -45 -45 l0 -39 128 1 c70 1 197 4 282 8 l155 6 -37 22 c-74 44 -78 58 -78 321 l0 232 55 0 c53 0 56 -2 114 -58 32 -32 94 -112 136 -178 42 -65 94 -145 116 -176 21 -31 39 -59 39 -62 0 -2 -29 -7 -63 -11 -115 -12 -236 35 -301 117 l-26 33 0 -40 c0 -72 53 -135 147 -177 60 -27 197 -35 268 -16 44 12 57 12 110 -5 32 -10 84 -20 115 -23 69 -6 172 7 178 24 2 6 -2 12 -9 12 -22 0 -142 50 -168 69 l-23 18 27 29 c70 74 91 210 48 306 -43 95 -100 141 -288 233 -198 97 -244 135 -252 207 -10 84 43 138 135 138 50 0 122 -37 148 -77 12 -18 24 -29 28 -26 3 4 6 29 6 56 0 44 -4 54 -34 82 -37 35 -99 55 -169 55 -197 0 -316 -205 -224 -387 36 -70 79 -104 230 -179 187 -94 236 -128 260 -182 13 -31 18 -57 14 -85 -9 -65 -22 -64 -54 5 -53 110 -80 134 -353 311 -30 19 -72 48 -93 63 -29 21 -48 27 -77 26 l-40 -3 0 276 0 275 173 0 c194 0 246 -10 314 -60 79 -58 120 -187 92 -287 -14 -50 -85 -133 -114 -133 -27 0 -16 -21 20 -36 49 -20 128 -18 173 5 110 57 166 204 127 337 -42 147 -140 231 -304 260 -87 15 -826 20 -835 5z m864 -35 c19 -4 39 -12 45 -17 5 -5 17 -9 27 -9 10 0 18 -4 18 -10 0 -5 6 -10 14 -10 27 0 103 -79 126 -132 30 -69 34 -204 8 -259 -43 -90 -159 -151 -233 -123 -13 5 -8 15 26 49 46 46 81 133 75 182 -14 102 -35 153 -84 206 -72 76 -137 94 -356 96 -145 2 -171 0 -187 -14 -17 -16 -18 -38 -18 -283 -1 -258 0 -267 21 -289 15 -16 28 -21 44 -17 21 5 62 -10 74 -26 3 -4 34 -26 70 -49 36 -22 70 -44 76 -48 20 -15 49 -33 82 -49 63 -32 166 -138 199 -206 42 -87 55 -96 82 -62 12 15 22 34 22 43 10 128 -32 178 -241 283 -206 105 -230 122 -267 198 -26 52 -26 173 0 224 20 38 80 90 126 107 82 32 251 -13 251 -68 0 -17 -7 -17 -38 6 -34 24 -67 34 -117 36 -109 4 -187 -92 -155 -191 21 -63 85 -115 223 -183 69 -33 129 -61 133 -61 4 0 38 -23 75 -51 88 -67 122 -127 124 -218 2 -86 -9 -126 -51 -180 -19 -24 -34 -49 -34 -55 1 -21 26 -43 73 -64 26 -11 47 -22 47 -24 0 -12 -117 -4 -182 12 -42 10 -87 17 -100 14 -103 -24 -122 -25 -219 -9 -71 12 -157 63 -180 108 -12 21 -12 21 12 4 83 -60 203 -91 292 -75 87 16 87 18 -3 156 -44 67 -80 124 -80 127 0 15 -113 156 -163 203 -53 49 -58 52 -110 52 -85 0 -85 1 -86 -248 -2 -222 4 -268 41 -308 17 -19 17 -22 3 -28 -25 -9 -435 -6 -435 4 0 18 25 23 104 22 84 -2 103 5 124 44 8 15 11 178 12 553 0 581 2 559 -59 624 l-26 28 370 -4 c204 -2 386 -7 405 -11z"/> <path d="M830 2082 c-15 -12 -24 -30 -24 -53 -1 -19 -5 -40 -10 -47 -5 -8 -4 -18 3 -25 6 -6 11 -21 11 -34 0 -13 6 -24 13 -24 6 -1 19 -2 27 -3 25 -2 23 -32 -6 -88 -27 -53 -27 -53 -21 -223 4 -123 1 -200 -9 -279 -11 -77 -12 -112 -5 -119 6 -6 11 -20 11 -30 0 -10 8 -21 18 -23 9 -3 35 -33 57 -66 l39 -61 -42 -36 c-23 -20 -42 -41 -42 -47 0 -11 118 -2 139 10 6 4 11 3 11 -3 0 -5 -8 -12 -17 -14 -13 -3 -14 -5 -3 -6 32 -2 41 13 28 50 -8 21 -12 82 -10 164 1 72 1 249 1 395 0 235 -2 269 -18 306 -10 23 -24 45 -30 48 -16 10 -14 49 4 72 8 10 15 36 15 56 0 20 5 40 10 43 14 9 12 21 -6 40 -12 12 -19 13 -29 5 -10 -8 -19 -8 -34 -1 -29 16 -56 13 -81 -7z m112 -44 c-7 -7 -12 -8 -12 -2 0 14 12 26 19 19 2 -3 -1 -11 -7 -17z m-52 -23 c5 -27 7 -28 16 -11 15 26 28 3 14 -24 -8 -16 -8 -30 1 -57 9 -29 9 -37 -2 -44 -22 -14 -39 -11 -39 7 0 9 -13 21 -30 27 -17 7 -30 19 -30 29 0 9 -5 20 -11 23 -7 5 -5 13 6 25 10 11 12 20 6 24 -21 14 1 37 33 34 26 -2 32 -8 36 -33z m78 -195 c30 -60 28 -76 -9 -89 -18 -6 -33 -11 -35 -11 -10 0 -13 62 -4 86 9 27 9 28 -5 10 -20 -26 -19 -80 1 -101 14 -14 16 -30 11 -98 -3 -45 -9 -96 -13 -114 -6 -31 -7 -31 -38 -18 -28 12 -32 19 -38 67 -13 114 -9 199 13 245 20 41 62 75 84 70 6 -2 20 -23 33 -47z m22 -166 c0 -90 -32 -226 -60 -254 -20 -20 -20 -20 -20 10 0 16 7 55 15 87 8 31 15 92 15 135 0 63 3 79 18 87 30 18 32 13 32 -65z m10 -180 c0 -15 -6 -24 -16 -24 -11 0 -14 5 -10 16 3 9 6 22 6 30 0 9 5 12 10 9 6 -3 10 -17 10 -31z m-120 -148 c6 -71 15 -136 19 -145 9 -18 24 -121 18 -121 -3 0 -16 18 -31 40 -22 34 -24 40 -10 48 12 7 13 16 5 53 -5 24 -12 87 -16 139 -3 52 -9 104 -12 115 -4 14 -2 17 5 10 6 -5 16 -68 22 -139z m85 -73 c-5 -50 -11 -73 -20 -73 -24 0 -34 26 -41 108 -6 70 -5 82 8 77 8 -3 23 4 34 16 l19 21 3 -38 c2 -22 1 -72 -3 -111z m-106 -55 c1 -16 -3 -28 -8 -28 -15 0 -23 38 -15 73 7 32 7 32 15 7 4 -14 7 -37 8 -52z m97 -56 c-3 -5 -1 -30 3 -58 l9 -49 2 60 c3 57 3 55 10 -30 5 -49 10 -96 11 -104 5 -17 -30 -29 -91 -30 -43 -1 -44 0 -22 15 12 8 26 13 30 10 4 -2 14 9 21 25 10 23 11 43 2 93 -14 80 -15 76 10 76 11 0 18 -4 15 -8z"/> <path d="M838 2023 c7 -3 16 -2 19 1 4 3 -2 6 -13 5 -11 0 -14 -3 -6 -6z"/> <path d="M837 1995 c-4 -8 -2 -17 3 -20 6 -4 10 -4 10 -1 0 2 3 11 6 20 3 9 2 16 -4 16 -5 0 -12 -7 -15 -15z"/> <path d="M838 1943 c6 -2 18 -2 25 0 6 3 1 5 -13 5 -14 0 -19 -2 -12 -5z"/> <path d="M890 1925 c-8 -9 -8 -15 -2 -15 12 0 26 19 19 26 -2 2 -10 -2 -17 -11z"/> <path d="M2170 1959 c-88 -21 -107 -30 -96 -48 10 -16 60 -12 156 12 59 15 85 27 85 37 0 22 -46 21 -145 -1z"/> </g> </svg> 